<?xml version="1.0" standalone="no"?>
<!DOCTYPE svg PUBLIC "-//W3C//DTD SVG 20010904//EN"
 "http://www.w3.org/TR/2001/REC-SVG-20010904/DTD/svg10.dtd">
<svg version="1.0" xmlns="http://www.w3.org/2000/svg"
 width="268.000000pt" height="268.000000pt" viewBox="0 0 268.000000 268.000000"
 preserveAspectRatio="xMidYMid meet">
<metadata>
Created by potrace 1.14, written by Peter Selinger 2001-2017
</metadata>
<g transform="translate(0.000000,268.000000) scale(0.100000,-0.100000)"
fill="#000000" stroke="none">
<path d="M215 2664 c-55 -19 -110 -66 -143 -122 l-27 -47 -2 -1102 c-3 -1206
-6 -1149 54 -1214 13 -14 21 -28 18 -32 -3 -4 -2 -5 2 -2 10 8 33 -16 26 -28
-3 -6 -1 -7 5 -3 14 9 55 -12 47 -24 -3 -5 0 -12 6 -16 8 -4 9 -3 5 4 -8 13
35 17 47 6 3 -4 489 -7 1079 -6 1099 0 1126 1 1183 38 12 8 25 11 29 7 4 -5 6
-3 4 3 -2 7 7 20 19 31 11 10 32 39 45 63 l23 45 2 1100 c3 994 1 1105 -13
1142 -23 57 -67 108 -122 141 l-47 27 -1100 2 c-937 1 -1106 0 -1140 -13z"/>
</g>
</svg>
